# xmcd
#
# Track frame offsets: 
#        182
#        16257
#        30142
#        46262
#        59172
#        74502
#        85912
#        98545
#        113652
#        132080
#        143390
#        155792
#        170757
#        181295
#        196510
#        209535
#
# Disc length: 3032 seconds
#
# Revision: 3
# Processed by: cddbd v1.5.2PL0 Copyright (c) Steve Scherf et al.
# Submitted via: ExactAudioCopyFreeDBPlugin 1.0
#
DISCID=d10bd610
DTITLE=Various Artist - Trucker Hit Rallye  [CD 2)
DYEAR=1900
DGENRE=Country
TTITLE0=Jonny Hill - Für immer bei dir
TTITLE1=Gunter Gabriel - Der letzte Wagen is immer ein Combi
TTITLE2=Tom Astor - Alaska Highway
TTITLE3=Helt Oncale - Unser Song
TTITLE4=Tom Astor - Dolly's Cafe
TTITLE5=Nashville Music Company - Aber Mutti sagt: <<Es reicht>>
TTITLE6=Tom Astor - Ich bin kein Held
TTITLE7=Country Pickers - Silver Dollar
TTITLE8=Helt Oncale - California ist sein Traum
TTITLE9=Tom Astor - Du bist mein Untergang
TTITLE10=De Dröppcher - Mer sin Kölsche Cowboys
TTITLE11=Rugy and Howard - San Antonio
TTITLE12=Tom Astor - Wir sind zwei gute Freunde
TTITLE13=Rio Carter - Aus und vorbei mit der Fernfahrerei
TTITLE14=Beifahrer - Beifahrer
TTITLE15=Oskar Görts - Rast bei Oma Hildegard
EXTD=
EXTT0=
EXTT1=
EXTT2=
EXTT3=
EXTT4=
EXTT5=
EXTT6=
EXTT7=
EXTT8=
EXTT9=
EXTT10=
EXTT11=
EXTT12=
EXTT13=
EXTT14=
EXTT15=
PLAYORDER=
